<?xml version="1.0" encoding="utf-8"?>
<svg version="1.1" id="Layer_1" xmlns="http://www.w3.org/2000/svg" xmlns:xlink="http://www.w3.org/1999/xlink" x="0px" y="0px"
  viewBox="0 0 500 500" style="enable-background:new 0 0 500 500;" xml:space="preserve">
<style type="text/css">
 .st0{fill:#0F0F7F;}
 .st1{fill:url(#SVGID_1_);}
 .st2{fill:url(#SVGID_2_);}
 .st3{fill:url(#SVGID_3_);}
 .st4{fill:url(#SVGID_4_);}
 .st5{fill:url(#SVGID_5_);}
 .st6{fill:url(#SVGID_6_);}
</style>
<g>
 <path class="st0" d="M228.84,261.61h20.77v8.29h-28.47v-51.52h28.14v8.29h-20.43v13.12h18.76v8.23h-18.76V261.61z"/>
 <path class="st0" d="M320.94,264.63c-2.63,0-4.86-0.88-6.62-2.64c-1.76-1.82-2.63-4.04-2.63-6.74c0-2.69,0.88-4.92,2.63-6.68
  c1.76-1.82,3.98-2.69,6.62-2.69c2.61,0,4.81,0.86,6.56,2.64c0.76-1.99,1.89-3.8,3.37-5.43c-2.57-2.14-5.52-3.24-8.93-3.24
  c-4.45,0-7.85,1.64-10.25,4.98v-4.22h-3.13c-1.77,0-3.2,1.43-3.2,3.2v37.79h6.33v-15.87c2.4,3.28,5.8,4.92,10.25,4.92
  c3.42,0,6.37-1.06,8.93-3.19c-1.48-1.62-2.61-3.43-3.37-5.43C325.75,263.77,323.55,264.63,320.94,264.63z"/>
 <path class="st0" d="M333.2,266.33c2.93,2.87,6.79,4.34,11.54,4.34c5.68,0,9.96-2.11,12.82-6.38l-5.21-3.05
  c-1.7,2.4-4.22,3.63-7.55,3.63c-4.19,0-7.42-1.83-8.83-5.19c-0.6,2.25-1.7,4.27-3.3,6.07C332.84,265.93,333.01,266.14,333.2,266.33z"/>
 <path class="st0" d="M354.81,244.37c-2.75-2.99-6.27-4.51-10.54-4.51c-4.51,0-8.26,1.46-11.13,4.45c-0.17,0.17-0.32,0.36-0.48,0.54
  c-1.63,1.82-2.75,3.9-3.35,6.25c-0.33,1.31-0.51,2.69-0.51,4.17c0,1.48,0.18,2.88,0.5,4.19c0.59,2.37,1.7,4.46,3.35,6.28
  c1.6-1.8,2.7-3.81,3.3-6.07c-0.22-0.53-0.41-1.1-0.54-1.71h0.88h22.42c0.18-1.11,0.23-1.99,0.23-2.64
  C358.97,251.05,357.56,247.36,354.81,244.37z M336.34,252.8h-0.97c0.14-0.69,0.34-1.34,0.59-1.94c1.35-3.29,4.3-5.26,8.26-5.26
  c4.16,0,7.5,2.46,8.37,7.2H336.34z"/>
 <path class="st0" d="M370.85,245.54c1.58-3.63,4.63-5.45,9.02-5.45v6.85c-2.4-0.18-4.51,0.41-6.33,1.76
  c-1.81,1.29-2.69,3.46-2.69,6.44v14.76h-6.32v-29.28h6.32V245.54z"/>
 <path class="st0" d="M401.65,246.71h-7.26v14.05c0,3.75,2.46,3.69,7.26,3.46v5.68c-9.66,1.17-13.59-1.46-13.59-9.14v-14.05h-5.39
  v-6.09h5.39v-6.32l6.32-1.88v8.2h7.26V246.71z"/>
 <g>
  <g>
   <g>
    <path class="st0" d="M274.4,241.81l-5.1,5.77l-14.41-16.31c1.87-1.65,4.18-2.46,6.49-2.46c2.71,0,5.42,1.12,7.36,3.32l4.24,4.79
     c0,0.01,0.01,0.01,0.01,0.02c0.08,0.09,0.16,0.19,0.24,0.28l0,0C274.32,238.62,274.58,240.23,274.4,241.81z"/>
    <path class="st0" d="M275.84,240.19l-1.44,1.63l-5.1,5.77c0.23-0.28,6.3-7.69,2.11-12.41l1.81,2.05l0,0L275.84,240.19z"/>
    <path class="st0" d="M269.3,251.13l6.55,7.4l-7.12,8.06c-1.94,2.19-4.64,3.32-7.36,3.32c-2.31,0-4.63-0.81-6.49-2.46
     L269.3,251.13z"/>
   </g>
   <linearGradient id="SVGID_1_" gradientUnits="userSpaceOnUse" x1="270.3654" y1="252.4862" x2="277.8951" y2="253.6546">
    <stop  offset="0" style="stop-color:#E3312D"/>
    <stop  offset="0.1124" style="stop-color:#E95F32"/>
    <stop  offset="0.3315" style="stop-color:#F18F34"/>
    <stop  offset="0.7191" style="stop-color:#FDC800"/>
    <stop  offset="0.8114" style="stop-color:#FDCC04"/>
    <stop  offset="0.898" style="stop-color:#FED70F"/>
    <stop  offset="0.9822" style="stop-color:#FFEA21"/>
    <stop  offset="1" style="stop-color:#FFEF26"/>
   </linearGradient>
   <polygon class="st1" points="277.41,256.77 277.41,256.77 277.4,256.78 270.85,249.38 270.87,249.36 273.57,252.42    "/>
   <radialGradient id="SVGID_2_" cx="304.6493" cy="262.4627" r="21.7538" gradientUnits="userSpaceOnUse">
    <stop  offset="0.6273" style="stop-color:#00B1FF"/>
    <stop  offset="0.7167" style="stop-color:#00AEFE"/>
    <stop  offset="0.7726" style="stop-color:#00A6FB"/>
    <stop  offset="0.8193" style="stop-color:#0097F5"/>
    <stop  offset="0.8609" style="stop-color:#0083EC"/>
    <stop  offset="0.8991" style="stop-color:#0068E2"/>
    <stop  offset="0.9348" style="stop-color:#0047D4"/>
    <stop  offset="0.9681" style="stop-color:#0021C5"/>
    <stop  offset="0.9756" style="stop-color:#0017C1"/>
   </radialGradient>
   <path class="st2" d="M277.41,256.77l6.55-7.41l15.98,18.09c-1.87,1.65-4.18,2.46-6.49,2.46c-2.71,0-5.42-1.12-7.36-3.32
    L277.41,256.77z"/>
   <linearGradient id="SVGID_3_" gradientUnits="userSpaceOnUse" x1="270.866" y1="245.295" x2="299.9383" y2="245.295">
    <stop  offset="0" style="stop-color:#0679FA"/>
    <stop  offset="1" style="stop-color:#41D6FF"/>
   </linearGradient>
   <path class="st3" d="M299.94,231.27l-15.98,18.09v0c0,0,0,0,0,0s0,0,0,0s0,0,0,0c-0.22,0.26-6.31,7.68-2.11,12.41l-4.43-5.01h0v0
    l-3.84-4.34l-2.71-3.07l0,0l6.55-7.41v0l8.68-9.82c1.94-2.19,4.64-3.32,7.36-3.32C295.75,228.81,298.07,229.62,299.94,231.27z"/>
  </g>
 </g>
 <g>
  <path class="st0" d="M184.39,228.91v8.73H170.8v32.22h-9.87v-32.22h-16.34l7.24-8.73H184.39z"/>
  <path class="st0" d="M198.82,269.86h-9.87v-40.95h9.87V269.86z"/>
 </g>
 <g>
  <linearGradient id="SVGID_4_" gradientUnits="userSpaceOnUse" x1="142.0587" y1="260.5242" x2="104.8356" y2="227.3916">
   <stop  offset="0" style="stop-color:#4FE5FE"/>
   <stop  offset="1" style="stop-color:#0877ED"/>
  </linearGradient>
  <path class="st4" d="M143.71,257.97c-2.53,3.16-5.12,6.27-7.61,9.47c-0.24,0.31-0.49,0.59-0.75,0.84c0.5-2.46,0.7-7.26-4.17-10.46
   c-6.69-4.41-20.92-11.7-21.37-11.93c-0.01,0-0.01-0.01-0.01-0.01h0c-1.65-0.92-3.29-1.85-4.87-2.88
   c-4.2-2.73-5.49-8.57-2.58-12.61c2.64-3.67,5.49-7.2,8.6-10.52c0,0,0,0,0,0c-0.22,2.74,0.23,7.04,4.42,9.99
   c6.23,4.39,19.71,11.17,21.14,11.88c0.01,0.01,0.02,0.01,0.03,0.02c0.01,0,0.02,0.01,0.03,0.01c0.01,0,0.02,0.01,0.02,0.01
   c0.02,0.01,0.03,0.01,0.03,0.02c0.01,0,0.01,0.01,0.01,0.01c1.52,0.81,3.02,1.68,4.51,2.54
   C146.23,247.27,147.38,253.4,143.71,257.97z"/>
  <linearGradient id="SVGID_5_" gradientUnits="userSpaceOnUse" x1="99.1028" y1="269.1921" x2="121.6003" y2="257.7388">
   <stop  offset="0" style="stop-color:#4FE5FE"/>
   <stop  offset="1" style="stop-color:#0877ED"/>
  </linearGradient>
  <path class="st5" d="M131.03,269.84c1.81,0.12,3.17-0.44,4.32-1.56c0.5-2.46,0.7-7.26-4.17-10.46
   c-6.69-4.41-20.92-11.7-21.37-11.93c0.57,0.32,1.14,0.64,1.71,0.96c0.87,0.49,1.11,1.03,0.39,1.83c-0.34,0.39-0.63,0.82-0.96,1.23
   c-3.83,4.78-7.67,9.55-11.49,14.34c-0.96,1.2-1.53,2.53-0.76,4.03c0.73,1.42,2.1,1.53,3.49,1.53L131.03,269.84z"/>
  <linearGradient id="SVGID_6_" gradientUnits="userSpaceOnUse" x1="129.665" y1="218.4363" x2="129.4606" y2="235.4042">
   <stop  offset="0" style="stop-color:#4FE5FE"/>
   <stop  offset="1" style="stop-color:#0877ED"/>
  </linearGradient>
  <path class="st6" d="M145.17,218.39c1.27,0.04,2.39,0.44,2.96,1.66c0.57,1.21-0.07,2.23-0.79,3.14c-3.71,4.72-7.45,9.4-11.19,14.1
   c-0.44,0.55-0.91,1.08-1.37,1.62c-0.85,1.01-0.7,1.6,0.5,2.2c0.42,0.21,0.84,0.43,1.26,0.66c-1.25-0.63-14.9-7.47-21.17-11.9
   c-4.19-2.95-4.64-7.25-4.42-9.99c1-1.06,2.18-1.51,3.56-1.48L145.17,218.39z"/>
 </g>
</g>
</svg>
